<?xml version="1.0" encoding="utf-8"?><svg xmlns="http://www.w3.org/2000/svg" xmlns:xlink="http://www.w3.org/1999/xlink" width="1366" height="657" preserveAspectRatio="xMidYMid" viewBox="0 0 1366 657" style="z-index:1;margin-right:-2px;display:block;background-repeat-y:initial;background-repeat-x:initial;background-color:rgb(255, 255, 255);animation-play-state:paused" ><g transform="" style="animation-play-state:paused" ><g id="bk-0.6377100163873994" style="animation-play-state:paused" ><path d="M 629 264 L 522 254 L 616 359 Z" stroke="#353c60" fill="#353c60" style="animation-play-state:paused" ></path>
<path d="M 522 254 L 518 342 L 616 359 Z" stroke="#363d61" fill="#363d61" style="animation-play-state:paused" ></path>
<path d="M 629 264 L 544 168 L 522 254 Z" stroke="#2d3355" fill="#2d3355" style="animation-play-state:paused" ></path>
<path d="M 629 264 L 619 180 L 544 168 Z" stroke="#2c3254" fill="#2c3254" style="animation-play-state:paused" ></path>
<path d="M 616 359 L 724 258 L 629 264 Z" stroke="#384065" fill="#384065" style="animation-play-state:paused" ></path>
<path d="M 629 264 L 724 258 L 619 180 Z" stroke="#32395c" fill="#32395c" style="animation-play-state:paused" ></path>
<path d="M 416 172 L 424 241 L 522 254 Z" stroke="#272c4d" fill="#272c4d" style="animation-play-state:paused" ></path>
<path d="M 522 254 L 424 241 L 518 342 Z" stroke="#2e3557" fill="#2e3557" style="animation-play-state:paused" ></path>
<path d="M 424 241 L 421 351 L 518 342 Z" stroke="#303658" fill="#303658" style="animation-play-state:paused" ></path>
<path d="M 518 342 L 511 463 L 616 359 Z" stroke="#3c446a" fill="#3c446a" style="animation-play-state:paused" ></path>
<path d="M 421 351 L 511 463 L 518 342 Z" stroke="#383f64" fill="#383f64" style="animation-play-state:paused" ></path>
<path d="M 616 359 L 714 378 L 724 258 Z" stroke="#3e476d" fill="#3e476d" style="animation-play-state:paused" ></path>
<path d="M 642 477 L 714 378 L 616 359 Z" stroke="#444d76" fill="#444d76" style="animation-play-state:paused" ></path>
<path d="M 511 463 L 642 477 L 616 359 Z" stroke="#424c74" fill="#424c74" style="animation-play-state:paused" ></path>
<path d="M 498 40 L 416 172 L 544 168 Z" stroke="#1f2341" fill="#1f2341" style="animation-play-state:paused" ></path>
<path d="M 544 168 L 416 172 L 522 254 Z" stroke="#262c4c" fill="#262c4c" style="animation-play-state:paused" ></path>
<path d="M 724 258 L 704 143 L 619 180 Z" stroke="#2f3557" fill="#2f3557" style="animation-play-state:paused" ></path>
<path d="M 619 180 L 600 62 L 544 168 Z" stroke="#242949" fill="#242949" style="animation-play-state:paused" ></path>
<path d="M 330 381 L 430 474 L 421 351 Z" stroke="#343b5e" fill="#343b5e" style="animation-play-state:paused" ></path>
<path d="M 421 351 L 430 474 L 511 463 Z" stroke="#3a4266" fill="#3a4266" style="animation-play-state:paused" ></path>
<path d="M 511 463 L 513 563 L 642 477 Z" stroke="#465079" fill="#465079" style="animation-play-state:paused" ></path>
<path d="M 642 477 L 719 461 L 714 378 Z" stroke="#49547f" fill="#49547f" style="animation-play-state:paused" ></path>
<path d="M 800 352 L 813 239 L 724 258 Z" stroke="#3d466c" fill="#3d466c" style="animation-play-state:paused" ></path>
<path d="M 800 352 L 724 258 L 714 378 Z" stroke="#414a71" fill="#414a71" style="animation-play-state:paused" ></path>
<path d="M 724 258 L 813 239 L 704 143 Z" stroke="#343b5e" fill="#343b5e" style="animation-play-state:paused" ></path>
<path d="M 340 179 L 328 257 L 424 241 Z" stroke="#232847" fill="#232847" style="animation-play-state:paused" ></path>
<path d="M 424 241 L 328 257 L 421 351 Z" stroke="#2a2f50" fill="#2a2f50" style="animation-play-state:paused" ></path>
<path d="M 695 63 L 619 180 L 704 143 Z" stroke="#272c4c" fill="#272c4c" style="animation-play-state:paused" ></path>
<path d="M 695 63 L 600 62 L 619 180 Z" stroke="#222746" fill="#222746" style="animation-play-state:paused" ></path>
<path d="M 328 257 L 330 381 L 421 351 Z" stroke="#2c3254" fill="#2c3254" style="animation-play-state:paused" ></path>
<path d="M 719 461 L 800 352 L 714 378 Z" stroke="#48527d" fill="#48527d" style="animation-play-state:paused" ></path>
<path d="M 600 62 L 498 40 L 544 168 Z" stroke="#1d2240" fill="#1d2240" style="animation-play-state:paused" ></path>
<path d="M 416 172 L 340 179 L 424 241 Z" stroke="#212645" fill="#212645" style="animation-play-state:paused" ></path>
<path d="M 413 62 L 340 179 L 416 172 Z" stroke="#1b1f3d" fill="#1b1f3d" style="animation-play-state:paused" ></path>
<path d="M 413 566 L 511 463 L 430 474 Z" stroke="#3f486e" fill="#3f486e" style="animation-play-state:paused" ></path>
<path d="M 413 566 L 513 563 L 511 463 Z" stroke="#434c75" fill="#434c75" style="animation-play-state:paused" ></path>
<path d="M 642 477 L 710 566 L 719 461 Z" stroke="#4e5a87" fill="#4e5a87" style="animation-play-state:paused" ></path>
<path d="M 513 563 L 640 560 L 642 477 Z" stroke="#4b5682" fill="#4b5682" style="animation-play-state:paused" ></path>
<path d="M 819 65 L 695 63 L 704 143 Z" stroke="#252a4a" fill="#252a4a" style="animation-play-state:paused" ></path>
<path d="M 600 62 L 500 -60 L 498 40 Z" stroke="#333552" fill="#333552" style="animation-play-state:paused" ></path>
<path d="M 498 40 L 413 62 L 416 172 Z" stroke="#1a1e3b" fill="#1a1e3b" style="animation-play-state:paused" ></path>
<path d="M 944 262 L 833 178 L 813 239 Z" stroke="#3a4267" fill="#3a4267" style="animation-play-state:paused" ></path>
<path d="M 813 239 L 833 178 L 704 143 Z" stroke="#32395c" fill="#32395c" style="animation-play-state:paused" ></path>
<path d="M 640 560 L 710 566 L 642 477 Z" stroke="#4f5b89" fill="#4f5b89" style="animation-play-state:paused" ></path>
<path d="M 719 461 L 830 483 L 800 352 Z" stroke="#4d5986" fill="#4d5986" style="animation-play-state:paused" ></path>
<path d="M 221 475 L 316 483 L 330 381 Z" stroke="#31375a" fill="#31375a" style="animation-play-state:paused" ></path>
<path d="M 330 381 L 316 483 L 430 474 Z" stroke="#353c60" fill="#353c60" style="animation-play-state:paused" ></path>
<path d="M 316 483 L 413 566 L 430 474 Z" stroke="#3b4368" fill="#3b4368" style="animation-play-state:paused" ></path>
<path d="M 513 563 L 615 659 L 640 560 Z" stroke="#4e5a87" fill="#4e5a87" style="animation-play-state:paused" ></path>
<path d="M 808 545 L 830 483 L 719 461 Z" stroke="#536190" fill="#536190" style="animation-play-state:paused" ></path>
<path d="M 800 352 L 944 262 L 813 239 Z" stroke="#414a71" fill="#414a71" style="animation-play-state:paused" ></path>
<path d="M 719 -19 L 627 -15 L 695 63 Z" stroke="#191d3a" fill="#191d3a" style="animation-play-state:paused" ></path>
<path d="M 695 63 L 627 -15 L 600 62 Z" stroke="#1b1f3c" fill="#1b1f3c" style="animation-play-state:paused" ></path>
<path d="M 498 40 L 413 -43 L 413 62 Z" stroke="#434562" fill="#434562" style="animation-play-state:paused" ></path>
<path d="M 340 179 L 239 265 L 328 257 Z" stroke="#202544" fill="#202544" style="animation-play-state:paused" ></path>
<path d="M 328 257 L 239 265 L 330 381 Z" stroke="#262b4c" fill="#262b4c" style="animation-play-state:paused" ></path>
<path d="M 198 134 L 239 265 L 340 179 Z" stroke="#1a1e3c" fill="#1a1e3c" style="animation-play-state:paused" ></path>
<path d="M 833 178 L 819 65 L 704 143 Z" stroke="#2b3153" fill="#2b3153" style="animation-play-state:paused" ></path>
<path d="M 239 265 L 235 360 L 330 381 Z" stroke="#272d4d" fill="#272d4d" style="animation-play-state:paused" ></path>
<path d="M 316 483 L 318 564 L 413 566 Z" stroke="#3b4367" fill="#3b4367" style="animation-play-state:paused" ></path>
<path d="M 627 -15 L 500 -60 L 600 62 Z" stroke="#353855" fill="#353855" style="animation-play-state:paused" ></path>
<path d="M 325 -36 L 306 52 L 413 62 Z" stroke="#555773" fill="#555773" style="animation-play-state:paused" ></path>
<path d="M 413 62 L 306 52 L 340 179 Z" stroke="#2b2e4b" fill="#2b2e4b" style="animation-play-state:paused" ></path>
<path d="M 717 656 L 808 545 L 710 566 Z" stroke="#586798" fill="#586798" style="animation-play-state:paused" ></path>
<path d="M 710 566 L 808 545 L 719 461 Z" stroke="#536190" fill="#536190" style="animation-play-state:paused" ></path>
<path d="M 413 566 L 521 644 L 513 563 Z" stroke="#46517b" fill="#46517b" style="animation-play-state:paused" ></path>
<path d="M 640 560 L 717 656 L 710 566 Z" stroke="#546392" fill="#546392" style="animation-play-state:paused" ></path>
<path d="M 819 65 L 719 -19 L 695 63 Z" stroke="#1f2341" fill="#1f2341" style="animation-play-state:paused" ></path>
<path d="M 617 -161 L 506 -142 L 500 -60 Z" stroke="#8a8ca5" fill="#8a8ca5" style="animation-play-state:paused" ></path>
<path d="M 914 457 L 936 356 L 830 483 Z" stroke="#536190" fill="#536190" style="animation-play-state:paused" ></path>
<path d="M 830 483 L 936 356 L 800 352 Z" stroke="#4d5a87" fill="#4d5a87" style="animation-play-state:paused" ></path>
<path d="M 833 178 L 908 41 L 819 65 Z" stroke="#2a2f50" fill="#2a2f50" style="animation-play-state:paused" ></path>
<path d="M 221 475 L 318 564 L 316 483 Z" stroke="#353c5f" fill="#353c5f" style="animation-play-state:paused" ></path>
<path d="M 413 566 L 414 673 L 521 644 Z" stroke="#46507a" fill="#46507a" style="animation-play-state:paused" ></path>
<path d="M 936 356 L 944 262 L 800 352 Z" stroke="#47527c" fill="#47527c" style="animation-play-state:paused" ></path>
<path d="M 521 644 L 615 659 L 513 563 Z" stroke="#4c5985" fill="#4c5985" style="animation-play-state:paused" ></path>
<path d="M 500 -60 L 413 -43 L 498 40 Z" stroke="#565874" fill="#565874" style="animation-play-state:paused" ></path>
<path d="M 944 262 L 932 165 L 833 178 Z" stroke="#394065" fill="#394065" style="animation-play-state:paused" ></path>
<path d="M 235 360 L 221 475 L 330 381 Z" stroke="#2c3254" fill="#2c3254" style="animation-play-state:paused" ></path>
<path d="M 615 659 L 717 656 L 640 560 Z" stroke="#546292" fill="#546292" style="animation-play-state:paused" ></path>
<path d="M 927 584 L 914 457 L 830 483 Z" stroke="#5a6a9d" fill="#5a6a9d" style="animation-play-state:paused" ></path>
<path d="M 1017 374 L 1001 264 L 944 262 Z" stroke="#48537e" fill="#48537e" style="animation-play-state:paused" ></path>
<path d="M 927 584 L 830 483 L 808 545 Z" stroke="#5b6b9d" fill="#5b6b9d" style="animation-play-state:paused" ></path>
<path d="M 228 69 L 340 179 L 306 52 Z" stroke="#393b58" fill="#393b58" style="animation-play-state:paused" ></path>
<path d="M 228 69 L 198 134 L 340 179 Z" stroke="#343653" fill="#343653" style="animation-play-state:paused" ></path>
<path d="M 239 265 L 123 263 L 235 360 Z" stroke="#202544" fill="#202544" style="animation-play-state:paused" ></path>
<path d="M 117 450 L 226 543 L 221 475 Z" stroke="#2d3355" fill="#2d3355" style="animation-play-state:paused" ></path>
<path d="M 304 648 L 414 673 L 318 564 Z" stroke="#3f486e" fill="#3f486e" style="animation-play-state:paused" ></path>
<path d="M 318 564 L 414 673 L 413 566 Z" stroke="#404970" fill="#404970" style="animation-play-state:paused" ></path>
<path d="M 521 644 L 609 765 L 615 659 Z" stroke="#515f8d" fill="#515f8d" style="animation-play-state:paused" ></path>
<path d="M 226 -39 L 228 69 L 306 52 Z" stroke="#6c6e89" fill="#6c6e89" style="animation-play-state:paused" ></path>
<path d="M 413 -43 L 325 -36 L 413 62 Z" stroke="#60627d" fill="#60627d" style="animation-play-state:paused" ></path>
<path d="M 932 165 L 908 41 L 833 178 Z" stroke="#2f3558" fill="#2f3558" style="animation-play-state:paused" ></path>
<path d="M 819 65 L 794 -57 L 719 -19 Z" stroke="#1b1f3c" fill="#1b1f3c" style="animation-play-state:paused" ></path>
<path d="M 1026 153 L 908 41 L 932 165 Z" stroke="#303759" fill="#303759" style="animation-play-state:paused" ></path>
<path d="M 913 -47 L 794 -57 L 819 65 Z" stroke="#1c203e" fill="#1c203e" style="animation-play-state:paused" ></path>
<path d="M 617 -161 L 500 -60 L 627 -15 Z" stroke="#646681" fill="#646681" style="animation-play-state:paused" ></path>
<path d="M 226 543 L 304 648 L 318 564 Z" stroke="#394065" fill="#394065" style="animation-play-state:paused" ></path>
<path d="M 146 370 L 221 475 L 235 360 Z" stroke="#282e4f" fill="#282e4f" style="animation-play-state:paused" ></path>
<path d="M 221 475 L 226 543 L 318 564 Z" stroke="#343b5e" fill="#343b5e" style="animation-play-state:paused" ></path>
<path d="M 617 -161 L 627 -15 L 732 -137 Z" stroke="#676984" fill="#676984" style="animation-play-state:paused" ></path>
<path d="M 500 -60 L 432 -126 L 413 -43 Z" stroke="#7f819b" fill="#7f819b" style="animation-play-state:paused" ></path>
<path d="M 413 -43 L 348 -135 L 325 -36 Z" stroke="#9092ab" fill="#9092ab" style="animation-play-state:paused" ></path>
<path d="M 119 171 L 239 265 L 198 134 Z" stroke="#272a47" fill="#272a47" style="animation-play-state:paused" ></path>
<path d="M 119 171 L 123 263 L 239 265 Z" stroke="#1a1e3b" fill="#1a1e3b" style="animation-play-state:paused" ></path>
<path d="M 123 263 L 146 370 L 235 360 Z" stroke="#212645" fill="#212645" style="animation-play-state:paused" ></path>
<path d="M 1017 374 L 944 262 L 936 356 Z" stroke="#4b5783" fill="#4b5783" style="animation-play-state:paused" ></path>
<path d="M 944 262 L 1001 264 L 932 165 Z" stroke="#3f476e" fill="#3f476e" style="animation-play-state:paused" ></path>
<path d="M 732 -137 L 627 -15 L 719 -19 Z" stroke="#40435f" fill="#40435f" style="animation-play-state:paused" ></path>
<path d="M 348 -135 L 432 -126 L 215 -140 Z" stroke="#c4c6db" fill="#c4c6db" style="animation-play-state:paused" ></path>
<path d="M 506 -142 L 432 -126 L 500 -60 Z" stroke="#8f91aa" fill="#8f91aa" style="animation-play-state:paused" ></path>
<path d="M 919 643 L 927 584 L 808 545 Z" stroke="#5e73a6" fill="#5e73a6" style="animation-play-state:paused" ></path>
<path d="M 1023 460 L 1017 374 L 936 356 Z" stroke="#546292" fill="#546292" style="animation-play-state:paused" ></path>
<path d="M 717 656 L 832 678 L 808 545 Z" stroke="#5d6da1" fill="#5d6da1" style="animation-play-state:paused" ></path>
<path d="M 795 754 L 832 678 L 717 656 Z" stroke="#5e71a5" fill="#5e71a5" style="animation-play-state:paused" ></path>
<path d="M 113 59 L 119 171 L 198 134 Z" stroke="#555773" fill="#555773" style="animation-play-state:paused" ></path>
<path d="M 113 59 L 198 134 L 228 69 Z" stroke="#5d5f7b" fill="#5d5f7b" style="animation-play-state:paused" ></path>
<path d="M 516 759 L 609 765 L 521 644 Z" stroke="#505d8b" fill="#505d8b" style="animation-play-state:paused" ></path>
<path d="M 615 659 L 718 766 L 717 656 Z" stroke="#59689a" fill="#59689a" style="animation-play-state:paused" ></path>
<path d="M 516 759 L 521 644 L 417 765 Z" stroke="#4b5783" fill="#4b5783" style="animation-play-state:paused" ></path>
<path d="M 1023 460 L 936 356 L 914 457 Z" stroke="#566494" fill="#566494" style="animation-play-state:paused" ></path>
<path d="M 794 -57 L 732 -137 L 719 -19 Z" stroke="#40425f" fill="#40425f" style="animation-play-state:paused" ></path>
<path d="M 817 -130 L 732 -137 L 794 -57 Z" stroke="#545672" fill="#545672" style="animation-play-state:paused" ></path>
<path d="M 1124 169 L 1026 153 L 1001 264 Z" stroke="#3d466c" fill="#3d466c" style="animation-play-state:paused" ></path>
<path d="M 1001 264 L 1026 153 L 932 165 Z" stroke="#3b4368" fill="#3b4368" style="animation-play-state:paused" ></path>
<path d="M 417 765 L 521 644 L 414 673 Z" stroke="#48537e" fill="#48537e" style="animation-play-state:paused" ></path>
<path d="M 927 584 L 1023 460 L 914 457 Z" stroke="#5d6ea2" fill="#5d6ea2" style="animation-play-state:paused" ></path>
<path d="M 348 -135 L 226 -39 L 325 -36 Z" stroke="#9fa1b8" fill="#9fa1b8" style="animation-play-state:paused" ></path>
<path d="M 325 -36 L 226 -39 L 306 52 Z" stroke="#797b95" fill="#797b95" style="animation-play-state:paused" ></path>
<path d="M 215 -140 L 432 -126 L 506 -142 Z" stroke="#b9bbd0" fill="#b9bbd0" style="animation-play-state:paused" ></path>
<path d="M 432 -126 L 348 -135 L 413 -43 Z" stroke="#9c9eb6" fill="#9c9eb6" style="animation-play-state:paused" ></path>
<path d="M 0 358 L 117 450 L 146 370 Z" stroke="#212644" fill="#212644" style="animation-play-state:paused" ></path>
<path d="M 146 370 L 117 450 L 221 475 Z" stroke="#282d4e" fill="#282d4e" style="animation-play-state:paused" ></path>
<path d="M 0 358 L 146 370 L 123 263 Z" stroke="#1d213f" fill="#1d213f" style="animation-play-state:paused" ></path>
<path d="M 1007 51 L 913 -47 L 908 41 Z" stroke="#222746" fill="#222746" style="animation-play-state:paused" ></path>
<path d="M 908 41 L 913 -47 L 819 65 Z" stroke="#212645" fill="#212645" style="animation-play-state:paused" ></path>
<path d="M 300 739 L 414 673 L 304 648 Z" stroke="#404971" fill="#404971" style="animation-play-state:paused" ></path>
<path d="M 300 739 L 417 765 L 414 673 Z" stroke="#444e77" fill="#444e77" style="animation-play-state:paused" ></path>
<path d="M 832 678 L 919 643 L 808 545 Z" stroke="#5e73a6" fill="#5e73a6" style="animation-play-state:paused" ></path>
<path d="M 927 584 L 1041 576 L 1023 460 Z" stroke="#5f76a9" fill="#5f76a9" style="animation-play-state:paused" ></path>
<path d="M 928 762 L 919 643 L 832 678 Z" stroke="#607bad" fill="#607bad" style="animation-play-state:paused" ></path>
<path d="M 516 759 L 718 766 L 609 765 Z" stroke="#566494" fill="#566494" style="animation-play-state:paused" ></path>
<path d="M 609 765 L 718 766 L 615 659 Z" stroke="#576697" fill="#576697" style="animation-play-state:paused" ></path>
<path d="M 417 765 L 718 766 L 516 759 Z" stroke="#515e8c" fill="#515e8c" style="animation-play-state:paused" ></path>
<path d="M 226 -39 L 113 59 L 228 69 Z" stroke="#7c7e98" fill="#7c7e98" style="animation-play-state:paused" ></path>
<path d="M 119 171 L 9 268 L 123 263 Z" stroke="#2f324f" fill="#2f324f" style="animation-play-state:paused" ></path>
<path d="M 913 -47 L 817 -130 L 794 -57 Z" stroke="#363855" fill="#363855" style="animation-play-state:paused" ></path>
<path d="M 732 -137 L 908 -137 L 617 -161 Z" stroke="#737590" fill="#737590" style="animation-play-state:paused" ></path>
<path d="M 97 633 L 220 669 L 226 543 Z" stroke="#333a5d" fill="#333a5d" style="animation-play-state:paused" ></path>
<path d="M 226 543 L 220 669 L 304 648 Z" stroke="#383f64" fill="#383f64" style="animation-play-state:paused" ></path>
<path d="M 1139 72 L 1007 51 L 1026 153 Z" stroke="#303658" fill="#303658" style="animation-play-state:paused" ></path>
<path d="M 1026 153 L 1007 51 L 908 41 Z" stroke="#2c3254" fill="#2c3254" style="animation-play-state:paused" ></path>
<path d="M 718 766 L 795 754 L 717 656 Z" stroke="#5e6fa3" fill="#5e6fa3" style="animation-play-state:paused" ></path>
<path d="M 220 669 L 300 739 L 304 648 Z" stroke="#3c4469" fill="#3c4469" style="animation-play-state:paused" ></path>
<path d="M 117 450 L 94 536 L 226 543 Z" stroke="#2c3153" fill="#2c3153" style="animation-play-state:paused" ></path>
<path d="M 220 669 L 225 779 L 300 739 Z" stroke="#3b4368" fill="#3b4368" style="animation-play-state:paused" ></path>
<path d="M 0 445 L 94 536 L 117 450 Z" stroke="#252a4a" fill="#252a4a" style="animation-play-state:paused" ></path>
<path d="M 992 635 L 1041 576 L 927 584 Z" stroke="#607cad" fill="#607cad" style="animation-play-state:paused" ></path>
<path d="M 1112 443 L 1121 347 L 1017 374 Z" stroke="#576697" fill="#576697" style="animation-play-state:paused" ></path>
<path d="M 1017 374 L 1121 347 L 1001 264 Z" stroke="#4e5b88" fill="#4e5b88" style="animation-play-state:paused" ></path>
<path d="M 992 635 L 927 584 L 919 643 Z" stroke="#607aad" fill="#607aad" style="animation-play-state:paused" ></path>
<path d="M 1112 443 L 1017 374 L 1023 460 Z" stroke="#5a6a9c" fill="#5a6a9c" style="animation-play-state:paused" ></path>
<path d="M 1121 347 L 1105 262 L 1001 264 Z" stroke="#4b5682" fill="#4b5682" style="animation-play-state:paused" ></path>
<path d="M 24 139 L 9 268 L 119 171 Z" stroke="#4c4e6a" fill="#4c4e6a" style="animation-play-state:paused" ></path>
<path d="M 226 -39 L 131 -43 L 113 59 Z" stroke="#9c9eb6" fill="#9c9eb6" style="animation-play-state:paused" ></path>
<path d="M 113 59 L 24 139 L 119 171 Z" stroke="#646682" fill="#646682" style="animation-play-state:paused" ></path>
<path d="M 112 -122 L 131 -43 L 226 -39 Z" stroke="#c4c6db" fill="#c4c6db" style="animation-play-state:paused" ></path>
<path d="M 928 762 L 992 635 L 919 643 Z" stroke="#607fb0" fill="#607fb0" style="animation-play-state:paused" ></path>
<path d="M 1102 545 L 1112 443 L 1023 460 Z" stroke="#5f74a7" fill="#5f74a7" style="animation-play-state:paused" ></path>
<path d="M 1024 -126 L 908 -137 L 913 -47 Z" stroke="#383a57" fill="#383a57" style="animation-play-state:paused" ></path>
<path d="M 913 -47 L 908 -137 L 817 -130 Z" stroke="#424561" fill="#424561" style="animation-play-state:paused" ></path>
<path d="M 817 -130 L 908 -137 L 732 -137 Z" stroke="#61637e" fill="#61637e" style="animation-play-state:paused" ></path>
<path d="M 1029 -34 L 913 -47 L 1007 51 Z" stroke="#202543" fill="#202543" style="animation-play-state:paused" ></path>
<path d="M 9 268 L 0 358 L 123 263 Z" stroke="#212542" fill="#212542" style="animation-play-state:paused" ></path>
<path d="M 1105 -39 L 1029 -34 L 1007 51 Z" stroke="#222746" fill="#222746" style="animation-play-state:paused" ></path>
<path d="M 1105 262 L 1124 169 L 1001 264 Z" stroke="#434d75" fill="#434d75" style="animation-play-state:paused" ></path>
<path d="M 1102 545 L 1023 460 L 1041 576 Z" stroke="#5f78ab" fill="#5f78ab" style="animation-play-state:paused" ></path>
<path d="M 1121 347 L 1202 359 L 1105 262 Z" stroke="#515e8d" fill="#515e8d" style="animation-play-state:paused" ></path>
<path d="M 18 54 L 24 139 L 113 59 Z" stroke="#84869f" fill="#84869f" style="animation-play-state:paused" ></path>
<path d="M -86 236 L -63 385 L 0 358 Z" stroke="#323552" fill="#323552" style="animation-play-state:paused" ></path>
<path d="M 617 -161 L 215 -140 L 506 -142 Z" stroke="#b3b5cb" fill="#b3b5cb" style="animation-play-state:paused" ></path>
<path d="M 348 -135 L 215 -140 L 226 -39 Z" stroke="#c1c3d7" fill="#c1c3d7" style="animation-play-state:paused" ></path>
<path d="M 0 358 L 0 445 L 117 450 Z" stroke="#1f2443" fill="#1f2443" style="animation-play-state:paused" ></path>
<path d="M 2 538 L 97 633 L 94 536 Z" stroke="#292f50" fill="#292f50" style="animation-play-state:paused" ></path>
<path d="M 94 536 L 97 633 L 226 543 Z" stroke="#2e3456" fill="#2e3456" style="animation-play-state:paused" ></path>
<path d="M 131 770 L 225 779 L 220 669 Z" stroke="#373e62" fill="#373e62" style="animation-play-state:paused" ></path>
<path d="M 300 739 L 225 779 L 417 765 Z" stroke="#404970" fill="#404970" style="animation-play-state:paused" ></path>
<path d="M 795 754 L 928 762 L 832 678 Z" stroke="#5f79ab" fill="#5f79ab" style="animation-play-state:paused" ></path>
<path d="M 718 766 L 928 762 L 795 754 Z" stroke="#5f76a9" fill="#5f76a9" style="animation-play-state:paused" ></path>
<path d="M 417 765 L 928 762 L 718 766 Z" stroke="#5b6b9d" fill="#5b6b9d" style="animation-play-state:paused" ></path>
<path d="M 1117 657 L 1102 545 L 1041 576 Z" stroke="#6183b3" fill="#6183b3" style="animation-play-state:paused" ></path>
<path d="M 1117 657 L 1041 576 L 992 635 Z" stroke="#6183b3" fill="#6183b3" style="animation-play-state:paused" ></path>
<path d="M 9 -55 L 18 54 L 131 -43 Z" stroke="#bfc1d6" fill="#bfc1d6" style="animation-play-state:paused" ></path>
<path d="M 131 -43 L 18 54 L 113 59 Z" stroke="#9d9fb6" fill="#9d9fb6" style="animation-play-state:paused" ></path>
<path d="M 1226 145 L 1139 72 L 1124 169 Z" stroke="#373f63" fill="#373f63" style="animation-play-state:paused" ></path>
<path d="M 1124 169 L 1139 72 L 1026 153 Z" stroke="#363d61" fill="#363d61" style="animation-play-state:paused" ></path>
<path d="M 1029 -34 L 1024 -126 L 913 -47 Z" stroke="#1b1f3c" fill="#1b1f3c" style="animation-play-state:paused" ></path>
<path d="M 1226 145 L 1124 169 L 1105 262 Z" stroke="#404970" fill="#404970" style="animation-play-state:paused" ></path>
<path d="M 0 445 L 2 538 L 94 536 Z" stroke="#242949" fill="#242949" style="animation-play-state:paused" ></path>
<path d="M -76 475 L 2 538 L 0 445 Z" stroke="#1f2442" fill="#1f2442" style="animation-play-state:paused" ></path>
<path d="M 215 -140 L 112 -122 L 226 -39 Z" stroke="#d3d5e8" fill="#d3d5e8" style="animation-play-state:paused" ></path>
<path d="M 1105 -39 L 1024 -126 L 1029 -34 Z" stroke="#1a1f3c" fill="#1a1f3c" style="animation-play-state:paused" ></path>
<path d="M 1139 72 L 1105 -39 L 1007 51 Z" stroke="#282d4e" fill="#282d4e" style="animation-play-state:paused" ></path>
<path d="M -86 236 L 0 358 L 9 268 Z" stroke="#3a3c59" fill="#3a3c59" style="animation-play-state:paused" ></path>
<path d="M 0 358 L -63 385 L 0 445 Z" stroke="#1a1f3c" fill="#1a1f3c" style="animation-play-state:paused" ></path>
<path d="M -86 236 L 9 268 L 24 139 Z" stroke="#565874" fill="#565874" style="animation-play-state:paused" ></path>
<path d="M 928 762 L 1015 760 L 992 635 Z" stroke="#6184b4" fill="#6184b4" style="animation-play-state:paused" ></path>
<path d="M 6 672 L 131 770 L 97 633 Z" stroke="#2e3456" fill="#2e3456" style="animation-play-state:paused" ></path>
<path d="M 97 633 L 131 770 L 220 669 Z" stroke="#333a5d" fill="#333a5d" style="animation-play-state:paused" ></path>
<path d="M 1227 465 L 1202 359 L 1112 443 Z" stroke="#5e71a4" fill="#5e71a4" style="animation-play-state:paused" ></path>
<path d="M 1112 443 L 1202 359 L 1121 347 Z" stroke="#59689a" fill="#59689a" style="animation-play-state:paused" ></path>
<path d="M 1015 760 L 1117 657 L 992 635 Z" stroke="#6287b7" fill="#6287b7" style="animation-play-state:paused" ></path>
<path d="M 1227 465 L 1112 443 L 1102 545 Z" stroke="#5f78ab" fill="#5f78ab" style="animation-play-state:paused" ></path>
<path d="M 1139 72 L 1226 65 L 1105 -39 Z" stroke="#2a3051" fill="#2a3051" style="animation-play-state:paused" ></path>
<path d="M 18 -148 L 9 -55 L 131 -43 Z" stroke="#d6d8ed" fill="#d6d8ed" style="animation-play-state:paused" ></path>
<path d="M -92 148 L -86 236 L 24 139 Z" stroke="#747690" fill="#747690" style="animation-play-state:paused" ></path>
<path d="M 1242 280 L 1226 145 L 1105 262 Z" stroke="#46507a" fill="#46507a" style="animation-play-state:paused" ></path>
<path d="M -56 678 L 6 672 L 2 538 Z" stroke="#262b4b" fill="#262b4b" style="animation-play-state:paused" ></path>
<path d="M 2 538 L 6 672 L 97 633 Z" stroke="#292e4f" fill="#292e4f" style="animation-play-state:paused" ></path>
<path d="M 1229 557 L 1227 465 L 1102 545 Z" stroke="#6180b1" fill="#6180b1" style="animation-play-state:paused" ></path>
<path d="M -92 148 L 24 139 L -67 57 Z" stroke="#9193ab" fill="#9193ab" style="animation-play-state:paused" ></path>
<path d="M -168 372 L -76 475 L -63 385 Z" stroke="#272a47" fill="#272a47" style="animation-play-state:paused" ></path>
<path d="M -63 385 L -76 475 L 0 445 Z" stroke="#1b1f3d" fill="#1b1f3d" style="animation-play-state:paused" ></path>
<path d="M 1335 277 L 1242 280 L 1327 386 Z" stroke="#556393" fill="#556393" style="animation-play-state:paused" ></path>
<path d="M 1202 359 L 1242 280 L 1105 262 Z" stroke="#4f5c8a" fill="#4f5c8a" style="animation-play-state:paused" ></path>
<path d="M -67 57 L 24 139 L 18 54 Z" stroke="#9698b0" fill="#9698b0" style="animation-play-state:paused" ></path>
<path d="M 9 -55 L -67 57 L 18 54 Z" stroke="#bec0d5" fill="#bec0d5" style="animation-play-state:paused" ></path>
<path d="M 1231 -18 L 1226 65 L 1318 64 Z" stroke="#2d3355" fill="#2d3355" style="animation-play-state:paused" ></path>
<path d="M 1226 145 L 1226 65 L 1139 72 Z" stroke="#333a5e" fill="#333a5e" style="animation-play-state:paused" ></path>
<path d="M 112 -122 L 18 -148 L 131 -43 Z" stroke="#d5d7ed" fill="#d5d7ed" style="animation-play-state:paused" ></path>
<path d="M 9 -55 L -81 -51 L -67 57 Z" stroke="#d8daee" fill="#d8daee" style="animation-play-state:paused" ></path>
<path d="M 215 -140 L 18 -148 L 112 -122 Z" stroke="#d2d4ec" fill="#d2d4ec" style="animation-play-state:paused" ></path>
<path d="M 1117 657 L 1229 557 L 1102 545 Z" stroke="#6286b6" fill="#6286b6" style="animation-play-state:paused" ></path>
<path d="M 1327 386 L 1242 280 L 1202 359 Z" stroke="#576697" fill="#576697" style="animation-play-state:paused" ></path>
<path d="M 1216 669 L 1229 557 L 1117 657 Z" stroke="#648ebc" fill="#648ebc" style="animation-play-state:paused" ></path>
<path d="M -76 475 L -71 551 L 2 538 Z" stroke="#202443" fill="#202443" style="animation-play-state:paused" ></path>
<path d="M -206 555 L -71 551 L -76 475 Z" stroke="#1b1f3d" fill="#1b1f3d" style="animation-play-state:paused" ></path>
<path d="M 1105 -39 L 1141 -139 L 1024 -126 Z" stroke="#252846" fill="#252846" style="animation-play-state:paused" ></path>
<path d="M 1024 -126 L 1198 -164 L 908 -137 Z" stroke="#474a66" fill="#474a66" style="animation-play-state:paused" ></path>
<path d="M 1231 -18 L 1141 -139 L 1105 -39 Z" stroke="#1d213f" fill="#1d213f" style="animation-play-state:paused" ></path>
<path d="M -56 678 L 32 766 L 6 672 Z" stroke="#282e4f" fill="#282e4f" style="animation-play-state:paused" ></path>
<path d="M 6 672 L 32 766 L 131 770 Z" stroke="#2d3355" fill="#2d3355" style="animation-play-state:paused" ></path>
<path d="M 131 770 L -61 786 L 225 779 Z" stroke="#31375a" fill="#31375a" style="animation-play-state:paused" ></path>
<path d="M 928 762 L 1142 767 L 1015 760 Z" stroke="#638ab9" fill="#638ab9" style="animation-play-state:paused" ></path>
<path d="M 1015 760 L 1142 767 L 1117 657 Z" stroke="#648fbc" fill="#648fbc" style="animation-play-state:paused" ></path>
<path d="M 417 765 L 1142 767 L 928 762 Z" stroke="#5f78ab" fill="#5f78ab" style="animation-play-state:paused" ></path>
<path d="M 1318 64 L 1226 65 L 1226 145 Z" stroke="#343b5f" fill="#343b5f" style="animation-play-state:paused" ></path>
<path d="M 1226 65 L 1231 -18 L 1105 -39 Z" stroke="#272c4c" fill="#272c4c" style="animation-play-state:paused" ></path>
<path d="M -176 247 L -168 372 L -86 236 Z" stroke="#60627e" fill="#60627e" style="animation-play-state:paused" ></path>
<path d="M -86 236 L -168 372 L -63 385 Z" stroke="#424461" fill="#424461" style="animation-play-state:paused" ></path>
<path d="M -176 247 L -86 236 L -92 148 Z" stroke="#787a94" fill="#787a94" style="animation-play-state:paused" ></path>
<path d="M -166 662 L -56 678 L -71 551 Z" stroke="#202544" fill="#202544" style="animation-play-state:paused" ></path>
<path d="M -71 551 L -56 678 L 2 538 Z" stroke="#232847" fill="#232847" style="animation-play-state:paused" ></path>
<path d="M 1142 767 L 1216 669 L 1117 657 Z" stroke="#6592bf" fill="#6592bf" style="animation-play-state:paused" ></path>
<path d="M 1319 461 L 1202 359 L 1227 465 Z" stroke="#5f75a8" fill="#5f75a8" style="animation-play-state:paused" ></path>
<path d="M -65 -135 L -81 -51 L 9 -55 Z" stroke="#d1d3eb" fill="#d1d3eb" style="animation-play-state:paused" ></path>
<path d="M -193 147 L -176 247 L -92 148 Z" stroke="#9294ad" fill="#9294ad" style="animation-play-state:paused" ></path>
<path d="M 1319 461 L 1227 465 L 1229 557 Z" stroke="#6180b1" fill="#6180b1" style="animation-play-state:paused" ></path>
<path d="M 1242 280 L 1331 167 L 1226 145 Z" stroke="#444d76" fill="#444d76" style="animation-play-state:paused" ></path>
<path d="M -193 147 L -92 148 L -184 55 Z" stroke="#b4b6cc" fill="#b4b6cc" style="animation-play-state:paused" ></path>
<path d="M 1323 574 L 1319 461 L 1229 557 Z" stroke="#6287b7" fill="#6287b7" style="animation-play-state:paused" ></path>
<path d="M 1335 277 L 1331 167 L 1242 280 Z" stroke="#4b5682" fill="#4b5682" style="animation-play-state:paused" ></path>
<path d="M 1319 461 L 1327 386 L 1202 359 Z" stroke="#5e72a5" fill="#5e72a5" style="animation-play-state:paused" ></path>
<path d="M 1427 161 L 1318 64 L 1331 167 Z" stroke="#3c446a" fill="#3c446a" style="animation-play-state:paused" ></path>
<path d="M 18 -148 L -65 -135 L 9 -55 Z" stroke="#ced1eb" fill="#ced1eb" style="animation-play-state:paused" ></path>
<path d="M -184 55 L -92 148 L -67 57 Z" stroke="#b7b9ce" fill="#b7b9ce" style="animation-play-state:paused" ></path>
<path d="M -278 -150 L -65 -135 L 18 -148 Z" stroke="#c6c9e8" fill="#c6c9e8" style="animation-play-state:paused" ></path>
<path d="M -282 367 L -177 454 L -168 372 Z" stroke="#4e506c" fill="#4e506c" style="animation-play-state:paused" ></path>
<path d="M -168 372 L -177 454 L -76 475 Z" stroke="#2c2f4c" fill="#2c2f4c" style="animation-play-state:paused" ></path>
<path d="M -184 55 L -67 57 L -164 -24 Z" stroke="#d8daee" fill="#d8daee" style="animation-play-state:paused" ></path>
<path d="M -176 247 L -282 367 L -168 372 Z" stroke="#656782" fill="#656782" style="animation-play-state:paused" ></path>
<path d="M 1231 -18 L 1198 -164 L 1141 -139 Z" stroke="#1f2340" fill="#1f2340" style="animation-play-state:paused" ></path>
<path d="M 1141 -139 L 1198 -164 L 1024 -126 Z" stroke="#3f425e" fill="#3f425e" style="animation-play-state:paused" ></path>
<path d="M 908 -137 L 1198 -164 L 617 -161 Z" stroke="#62647f" fill="#62647f" style="animation-play-state:paused" ></path>
<path d="M 617 -161 L 1198 -164 L 215 -140 Z" stroke="#888aa3" fill="#888aa3" style="animation-play-state:paused" ></path>
<path d="M 1295 -45 L 1198 -164 L 1231 -18 Z" stroke="#1d213f" fill="#1d213f" style="animation-play-state:paused" ></path>
<path d="M -164 -24 L -67 57 L -81 -51 Z" stroke="#d6d8ed" fill="#d6d8ed" style="animation-play-state:paused" ></path>
<path d="M 1400 239 L 1331 167 L 1335 277 Z" stroke="#4a5580" fill="#4a5580" style="animation-play-state:paused" ></path>
<path d="M 1331 167 L 1318 64 L 1226 145 Z" stroke="#3a4267" fill="#3a4267" style="animation-play-state:paused" ></path>
<path d="M -170 757 L -61 786 L -56 678 Z" stroke="#232847" fill="#232847" style="animation-play-state:paused" ></path>
<path d="M -56 678 L -61 786 L 32 766 Z" stroke="#272d4d" fill="#272d4d" style="animation-play-state:paused" ></path>
<path d="M 32 766 L -61 786 L 131 770 Z" stroke="#2c3254" fill="#2c3254" style="animation-play-state:paused" ></path>
<path d="M 225 779 L -61 786 L 417 765 Z" stroke="#373f63" fill="#373f63" style="animation-play-state:paused" ></path>
<path d="M 417 765 L -61 786 L 1142 767 Z" stroke="#4d5a86" fill="#4d5a86" style="animation-play-state:paused" ></path>
<path d="M 1142 767 L 1221 757 L 1216 669 Z" stroke="#6798c2" fill="#6798c2" style="animation-play-state:paused" ></path>
<path d="M 1216 669 L 1323 574 L 1229 557 Z" stroke="#648fbd" fill="#648fbd" style="animation-play-state:paused" ></path>
<path d="M -291 444 L -206 555 L -177 454 Z" stroke="#3b3d5a" fill="#3b3d5a" style="animation-play-state:paused" ></path>
<path d="M -177 454 L -206 555 L -76 475 Z" stroke="#202441" fill="#202441" style="animation-play-state:paused" ></path>
<path d="M 1318 668 L 1323 574 L 1216 669 Z" stroke="#6696c1" fill="#6696c1" style="animation-play-state:paused" ></path>
<path d="M 1413 449 L 1430 376 L 1327 386 Z" stroke="#5f76a9" fill="#5f76a9" style="animation-play-state:paused" ></path>
<path d="M -168 -130 L -164 -24 L -81 -51 Z" stroke="#cdd0ea" fill="#cdd0ea" style="animation-play-state:paused" ></path>
<path d="M -274 73 L -275 153 L -193 147 Z" stroke="#d0d2e5" fill="#d0d2e5" style="animation-play-state:paused" ></path>
<path d="M 1318 64 L 1295 -45 L 1231 -18 Z" stroke="#282e4e" fill="#282e4e" style="animation-play-state:paused" ></path>
<path d="M -206 555 L -166 662 L -71 551 Z" stroke="#1c203e" fill="#1c203e" style="animation-play-state:paused" ></path>
<path d="M 1430 376 L 1335 277 L 1327 386 Z" stroke="#5b6b9d" fill="#5b6b9d" style="animation-play-state:paused" ></path>
<path d="M 1430 376 L 1400 239 L 1335 277 Z" stroke="#546392" fill="#546392" style="animation-play-state:paused" ></path>
<path d="M 1318 64 L 1433 -40 L 1295 -45 Z" stroke="#282e4e" fill="#282e4e" style="animation-play-state:paused" ></path>
<path d="M 1221 757 L 1318 668 L 1216 669 Z" stroke="#679ac4" fill="#679ac4" style="animation-play-state:paused" ></path>
<path d="M 1413 449 L 1327 386 L 1319 461 Z" stroke="#607aac" fill="#607aac" style="animation-play-state:paused" ></path>
<path d="M -65 -135 L -168 -130 L -81 -51 Z" stroke="#cacdea" fill="#cacdea" style="animation-play-state:paused" ></path>
<path d="M -274 73 L -193 147 L -184 55 Z" stroke="#d7d9ec" fill="#d7d9ec" style="animation-play-state:paused" ></path>
<path d="M -274 73 L -184 55 L -164 -24 Z" stroke="#d4d6ed" fill="#d4d6ed" style="animation-play-state:paused" ></path>
<path d="M -193 147 L -275 153 L -176 247 Z" stroke="#a6a8bf" fill="#a6a8bf" style="animation-play-state:paused" ></path>
<path d="M -206 555 L -293 662 L -166 662 Z" stroke="#1e223f" fill="#1e223f" style="animation-play-state:paused" ></path>
<path d="M -296 249 L -282 367 L -176 247 Z" stroke="#84869f" fill="#84869f" style="animation-play-state:paused" ></path>
<path d="M 1400 239 L 1427 161 L 1331 167 Z" stroke="#454f78" fill="#454f78" style="animation-play-state:paused" ></path>
<path d="M 1413 449 L 1319 461 L 1323 574 Z" stroke="#6185b4" fill="#6185b4" style="animation-play-state:paused" ></path>
<path d="M 1400 239 L 1498 139 L 1427 161 Z" stroke="#444e77" fill="#444e77" style="animation-play-state:paused" ></path>
<path d="M -275 153 L -296 249 L -176 247 Z" stroke="#a2a4bc" fill="#a2a4bc" style="animation-play-state:paused" ></path>
<path d="M 1422 568 L 1413 449 L 1323 574 Z" stroke="#638cba" fill="#638cba" style="animation-play-state:paused" ></path>
<path d="M -296 249 L -291 444 L -282 367 Z" stroke="#797b95" fill="#797b95" style="animation-play-state:paused" ></path>
<path d="M -282 367 L -291 444 L -177 454 Z" stroke="#555773" fill="#555773" style="animation-play-state:paused" ></path>
<path d="M 1431 -134 L 1329 -136 L 1295 -45 Z" stroke="#1a1f3c" fill="#1a1f3c" style="animation-play-state:paused" ></path>
<path d="M 1295 -45 L 1329 -136 L 1198 -164 Z" stroke="#1e223f" fill="#1e223f" style="animation-play-state:paused" ></path>
<path d="M -275 153 L -274 73 L -296 249 Z" stroke="#cacce0" fill="#cacce0" style="animation-play-state:paused" ></path>
<path d="M -276 -61 L -274 73 L -164 -24 Z" stroke="#ced1eb" fill="#ced1eb" style="animation-play-state:paused" ></path>
<path d="M -263 776 L -170 757 L -166 662 Z" stroke="#1c203d" fill="#1c203d" style="animation-play-state:paused" ></path>
<path d="M -166 662 L -170 757 L -56 678 Z" stroke="#202443" fill="#202443" style="animation-play-state:paused" ></path>
<path d="M 1318 668 L 1422 568 L 1323 574 Z" stroke="#6696c1" fill="#6696c1" style="animation-play-state:paused" ></path>
<path d="M 1413 449 L 1525 358 L 1430 376 Z" stroke="#5f76a9" fill="#5f76a9" style="animation-play-state:paused" ></path>
<path d="M 1498 139 L 1444 65 L 1427 161 Z" stroke="#3c446a" fill="#3c446a" style="animation-play-state:paused" ></path>
<path d="M 1427 161 L 1444 65 L 1318 64 Z" stroke="#383f63" fill="#383f63" style="animation-play-state:paused" ></path>
<path d="M -293 662 L -271 544 L -291 444 Z" stroke="#414360" fill="#414360" style="animation-play-state:paused" ></path>
<path d="M -291 444 L -271 544 L -206 555 Z" stroke="#3e415e" fill="#3e415e" style="animation-play-state:paused" ></path>
<path d="M 1221 757 L 1326 780 L 1318 668 Z" stroke="#6ba2c9" fill="#6ba2c9" style="animation-play-state:paused" ></path>
<path d="M 1318 668 L 1444 659 L 1422 568 Z" stroke="#689dc6" fill="#689dc6" style="animation-play-state:paused" ></path>
<path d="M 1142 767 L 1326 780 L 1221 757 Z" stroke="#689dc6" fill="#689dc6" style="animation-play-state:paused" ></path>
<path d="M 1510 49 L 1433 -40 L 1444 65 Z" stroke="#2e3456" fill="#2e3456" style="animation-play-state:paused" ></path>
<path d="M 1444 65 L 1433 -40 L 1318 64 Z" stroke="#2e3456" fill="#2e3456" style="animation-play-state:paused" ></path>
<path d="M -168 -130 L -276 -61 L -164 -24 Z" stroke="#c9cce9" fill="#c9cce9" style="animation-play-state:paused" ></path>
<path d="M -274 73 L -276 -61 L -296 249 Z" stroke="#d5d7ed" fill="#d5d7ed" style="animation-play-state:paused" ></path>
<path d="M -271 544 L -293 662 L -206 555 Z" stroke="#303350" fill="#303350" style="animation-play-state:paused" ></path>
<path d="M -296 249 L -293 662 L -291 444 Z" stroke="#5b5d79" fill="#5b5d79" style="animation-play-state:paused" ></path>
<path d="M 1423 736 L 1444 659 L 1318 668 Z" stroke="#6da8cc" fill="#6da8cc" style="animation-play-state:paused" ></path>
<path d="M 1540 469 L 1525 358 L 1413 449 Z" stroke="#607daf" fill="#607daf" style="animation-play-state:paused" ></path>
<path d="M 1430 376 L 1513 266 L 1400 239 Z" stroke="#556393" fill="#556393" style="animation-play-state:paused" ></path>
<path d="M 1540 469 L 1413 449 L 1502 564 Z" stroke="#6289b8" fill="#6289b8" style="animation-play-state:paused" ></path>
<path d="M 1513 266 L 1498 139 L 1400 239 Z" stroke="#4a5580" fill="#4a5580" style="animation-play-state:paused" ></path>
<path d="M -65 -135 L -278 -150 L -168 -130 Z" stroke="#c3c6e7" fill="#c3c6e7" style="animation-play-state:paused" ></path>
<path d="M -168 -130 L -278 -150 L -276 -61 Z" stroke="#c2c5e7" fill="#c2c5e7" style="animation-play-state:paused" ></path>
<path d="M 215 -140 L -278 -150 L 18 -148 Z" stroke="#cacde9" fill="#cacde9" style="animation-play-state:paused" ></path>
<path d="M 1525 358 L 1513 266 L 1430 376 Z" stroke="#5b6c9e" fill="#5b6c9e" style="animation-play-state:paused" ></path>
<path d="M 1326 780 L 1423 736 L 1318 668 Z" stroke="#6ea9ce" fill="#6ea9ce" style="animation-play-state:paused" ></path>
<path d="M 1517 -52 L 1431 -134 L 1433 -40 Z" stroke="#202443" fill="#202443" style="animation-play-state:paused" ></path>
<path d="M 1433 -40 L 1431 -134 L 1295 -45 Z" stroke="#1f2442" fill="#1f2442" style="animation-play-state:paused" ></path>
<path d="M 1329 -136 L 1431 -134 L 1198 -164 Z" stroke="#303250" fill="#303250" style="animation-play-state:paused" ></path>
<path d="M -293 662 L -263 776 L -166 662 Z" stroke="#1d203d" fill="#1d203d" style="animation-play-state:paused" ></path>
<path d="M -170 757 L -263 776 L -61 786 Z" stroke="#1e2341" fill="#1e2341" style="animation-play-state:paused" ></path>
<path d="M 1596 46 L 1510 49 L 1498 139 Z" stroke="#363e62" fill="#363e62" style="animation-play-state:paused" ></path>
<path d="M 1498 139 L 1510 49 L 1444 65 Z" stroke="#373e62" fill="#373e62" style="animation-play-state:paused" ></path>
<path d="M 1502 564 L 1422 568 L 1528 659 Z" stroke="#689cc5" fill="#689cc5" style="animation-play-state:paused" ></path>
<path d="M 1502 564 L 1413 449 L 1422 568 Z" stroke="#648ebb" fill="#648ebb" style="animation-play-state:paused" ></path>
<path d="M 1525 358 L 1616 253 L 1513 266 Z" stroke="#566595" fill="#566595" style="animation-play-state:paused" ></path>
<path d="M 1596 46 L 1517 -52 L 1510 49 Z" stroke="#2d3355" fill="#2d3355" style="animation-play-state:paused" ></path>
<path d="M 1528 659 L 1422 568 L 1444 659 Z" stroke="#6aa2c9" fill="#6aa2c9" style="animation-play-state:paused" ></path>
<path d="M 1625 157 L 1498 139 L 1513 266 Z" stroke="#47517b" fill="#47517b" style="animation-play-state:paused" ></path>
<path d="M 1510 49 L 1517 -52 L 1433 -40 Z" stroke="#292e4f" fill="#292e4f" style="animation-play-state:paused" ></path>
<path d="M 1627 475 L 1613 349 L 1540 469 Z" stroke="#6180b1" fill="#6180b1" style="animation-play-state:paused" ></path>
<path d="M 1541 769 L 1528 659 L 1444 659 Z" stroke="#74b3d3" fill="#74b3d3" style="animation-play-state:paused" ></path>
<path d="M 1613 349 L 1525 358 L 1540 469 Z" stroke="#5f78aa" fill="#5f78aa" style="animation-play-state:paused" ></path>
<path d="M 1613 349 L 1616 253 L 1525 358 Z" stroke="#5b6a9d" fill="#5b6a9d" style="animation-play-state:paused" ></path>
<path d="M 1606 -54 L 1524 -114 L 1517 -52 Z" stroke="#212544" fill="#212544" style="animation-play-state:paused" ></path>
<path d="M 1517 -52 L 1524 -114 L 1431 -134 Z" stroke="#1d213f" fill="#1d213f" style="animation-play-state:paused" ></path>
<path d="M 1431 -134 L 1614 -151 L 1198 -164 Z" stroke="#2e314e" fill="#2e314e" style="animation-play-state:paused" ></path>
<path d="M 1627 475 L 1540 469 L 1628 542 Z" stroke="#638cba" fill="#638cba" style="animation-play-state:paused" ></path>
<path d="M 1613 349 L 1625 157 L 1616 253 Z" stroke="#515e8c" fill="#515e8c" style="animation-play-state:paused" ></path>
<path d="M 1616 253 L 1625 157 L 1513 266 Z" stroke="#4c5985" fill="#4c5985" style="animation-play-state:paused" ></path>
<path d="M 1628 542 L 1540 469 L 1502 564 Z" stroke="#6491bd" fill="#6491bd" style="animation-play-state:paused" ></path>
<path d="M 1613 349 L 1627 475 L 1625 157 Z" stroke="#5c6c9f" fill="#5c6c9f" style="animation-play-state:paused" ></path>
<path d="M 1625 157 L 1596 46 L 1498 139 Z" stroke="#3c446a" fill="#3c446a" style="animation-play-state:paused" ></path>
<path d="M 1423 736 L 1541 769 L 1444 659 Z" stroke="#75b5d4" fill="#75b5d4" style="animation-play-state:paused" ></path>
<path d="M 1528 659 L 1628 542 L 1502 564 Z" stroke="#689cc5" fill="#689cc5" style="animation-play-state:paused" ></path>
<path d="M 1326 780 L 1541 769 L 1423 736 Z" stroke="#76b6d5" fill="#76b6d5" style="animation-play-state:paused" ></path>
<path d="M 1142 767 L 1541 769 L 1326 780 Z" stroke="#6fabcf" fill="#6fabcf" style="animation-play-state:paused" ></path>
<path d="M 1635 678 L 1628 542 L 1528 659 Z" stroke="#6ea8cd" fill="#6ea8cd" style="animation-play-state:paused" ></path>
<path d="M 1625 157 L 1606 -54 L 1596 46 Z" stroke="#33395d" fill="#33395d" style="animation-play-state:paused" ></path>
<path d="M 1596 46 L 1606 -54 L 1517 -52 Z" stroke="#282e4f" fill="#282e4f" style="animation-play-state:paused" ></path>
<path d="M 1541 769 L 1635 678 L 1528 659 Z" stroke="#78b9d7" fill="#78b9d7" style="animation-play-state:paused" ></path>
<path d="M 1628 542 L 1635 678 L 1627 475 Z" stroke="#679ac3" fill="#679ac3" style="animation-play-state:paused" ></path>
<path d="M 1627 475 L 1635 678 L 1625 157 Z" stroke="#6181b2" fill="#6181b2" style="animation-play-state:paused" ></path>
<path d="M 1625 157 L 1614 -151 L 1606 -54 Z" stroke="#292f50" fill="#292f50" style="animation-play-state:paused" ></path>
<path d="M 1606 -54 L 1614 -151 L 1524 -114 Z" stroke="#1c203e" fill="#1c203e" style="animation-play-state:paused" ></path>
<path d="M 1524 -114 L 1614 -151 L 1431 -134 Z" stroke="#1d213e" fill="#1d213e" style="animation-play-state:paused" ></path>
<path d="M 1541 769 L 1611 753 L 1635 678 Z" stroke="#7ec2dc" fill="#7ec2dc" style="animation-play-state:paused" ></path></g>
<style type="text/css" style="animation-play-state:paused" >#bk-0.6377100163873994 path { stroke-width: 1 }</style></g></svg>